<?xml version="1.0" encoding="UTF-8" standalone="no"?>
<svg
   xmlns:dc="http://purl.org/dc/elements/1.1/"
   xmlns:cc="http://creativecommons.org/ns#"
   xmlns:rdf="http://www.w3.org/1999/02/22-rdf-syntax-ns#"
   xmlns:svg="http://www.w3.org/2000/svg"
   xmlns="http://www.w3.org/2000/svg"
   xmlns:sodipodi="http://sodipodi.sourceforge.net/DTD/sodipodi-0.dtd"
   xmlns:inkscape="http://www.inkscape.org/namespaces/inkscape"
   viewBox="0 0 224.65625 254.26529"
   id="svg2"
   version="1.1"
   inkscape:version="0.91 r13725"
   sodipodi:docname="cow-head.svg">
  <metadata
     id="metadata50">
    <rdf:RDF>
      <cc:Work
         rdf:about="">
        <dc:format>image/svg+xml</dc:format>
        <dc:type
           rdf:resource="http://purl.org/dc/dcmitype/StillImage" />
      </cc:Work>
    </rdf:RDF>
  </metadata>
  <defs
     id="defs48" />
  <sodipodi:namedview
     pagecolor="#ffffff"
     bordercolor="#666666"
     borderopacity="1"
     objecttolerance="10"
     gridtolerance="10"
     guidetolerance="10"
     inkscape:pageopacity="0"
     inkscape:pageshadow="2"
     inkscape:window-width="1536"
     inkscape:window-height="785"
     id="namedview46"
     showgrid="false"
     inkscape:zoom="3.7126578"
     inkscape:cx="71.121874"
     inkscape:cy="83.26633"
     inkscape:window-x="-8"
     inkscape:window-y="-8"
     inkscape:window-maximized="1"
     inkscape:current-layer="svg2" />
  <path
     style="fill:#ffffff;stroke:#000000;stroke-width:4;stroke-linecap:round;stroke-linejoin:round"
     inkscape:connector-curvature="0"
     id="path18"
     d="M 109.6875,2.00791 C 79.55825,2.6185 58.75583,13.66118 46.0625,30.75791 21.99806,28.17012 2,54.38291 2,54.38291 c 0,0 18.89113,9.44632 32.0625,1.53125 C 31.66327,64.62588 30.5,74.02011 30.5,83.82041 c 0,45.17448 56.1255,81.84375 81.84375,81.84375 26.71661,0 81.84375,-36.66927 81.84375,-81.84375 0,-9.8003 -1.16389,-19.19453 -3.5625,-27.90625 13.17137,7.91507 32.03125,-1.53125 32.03125,-1.53125 0,0 -19.97122,-26.20456 -44.03125,-23.625 -13.06166,-17.59499 -34.70768,-28.75 -66.28125,-28.75 -0.89395,0 -1.77818,-0.01779 -2.65625,0 z" />
  <path
     style="fill:#4d4d4d;fill-rule:evenodd"
     inkscape:connector-curvature="0"
     id="path20"
     d="m 126.5625,3.97666 c 25.72095,17.92613 -3.04956,17.14231 -8.75,23.28125 -6.5,7 -9,17 -1.5,23.5 7.5,6.5 46,17.50001 51.5,-0.5 2.83534,-9.27929 -0.56613,-20.80215 -2.34375,-30.96875 C 155.45121,11.4277 142.56426,6.04694 126.5625,3.97666 Z" />
  <path
     style="fill:#ffffff;stroke:#000000;stroke-width:4.00002813;stroke-linecap:round;stroke-linejoin:round"
     inkscape:connector-curvature="0"
     id="path22"
     d="m 108.72051,71.834893 c 0.004,12.519031 -10.143901,22.66969 -22.662932,22.66969 -12.519032,0 -22.666664,-10.150659 -22.662933,-22.66969 -0.0037,-12.519032 10.143901,-22.66969 22.662933,-22.66969 12.519031,0 22.666662,10.150658 22.662932,22.66969 z" />
  <path
     style="fill:#ffffff;stroke:#000000;stroke-width:4.00002813;stroke-linecap:round;stroke-linejoin:round"
     inkscape:connector-curvature="0"
     id="path24"
     d="m 161.45271,71.834893 c 0.004,12.519031 -10.1439,22.66969 -22.66293,22.66969 -12.51903,0 -22.66667,-10.150659 -22.66293,-22.66969 -0.004,-12.519032 10.1439,-22.66969 22.66293,-22.66969 12.51903,0 22.66666,10.150658 22.66293,22.66969 z" />
  <path
     inkscape:connector-curvature="0"
     id="path26"
     d="m 141.30723,75.833881 c 0.001,4.172978 -3.38127,7.556506 -7.55425,7.556506 -4.17298,0 -7.5555,-3.383528 -7.55425,-7.556506 -0.001,-4.172979 3.38127,-7.556506 7.55425,-7.556506 4.17298,0 7.5555,3.383527 7.55425,7.556506 z" />
  <path
     inkscape:connector-curvature="0"
     id="path28"
     d="m 99.276893,75.833881 c 0.0012,4.172978 -3.381275,7.556506 -7.554254,7.556506 -4.172979,0 -7.555497,-3.383528 -7.554254,-7.556506 -0.0012,-4.172979 3.381275,-7.556506 7.554254,-7.556506 4.172979,0 7.555497,3.383527 7.554254,7.556506 z" />
  <path
     style="fill:#ffd5e5;stroke:#000000;stroke-width:4;stroke-linecap:round;stroke-linejoin:round"
     inkscape:connector-curvature="0"
     id="path30"
     d="m 112.34375,115.25791 c -19.86207,0 -35.96875,13.216 -35.96875,29.5 0,3.01956 0.56411,5.94363 1.59375,8.6875 12.71163,7.74342 25.39435,12.21875 34.375,12.21875 9.19823,0 21.75693,-4.33121 34.28125,-11.875 1.11318,-2.84275 1.71875,-5.88658 1.71875,-9.03125 0,-16.284 -16.13793,-29.5 -36,-29.5 z" />
  <path
     style="fill-opacity:0.31373004"
     inkscape:connector-curvature="0"
     id="path32"
     d="m 190.90625,57.00791 -1.875,2.65625 c 0.24888,3.07548 0.34375,6.20264 0.34375,9.375 0,45.17449 -55.12714,81.84375 -81.84375,81.84375 -20.70581,2e-5 -61.09673,-23.75565 -76.0625,-56.59375 7.61581,40.24628 57.1719,71.37501 80.875,71.375 26.71661,0 81.84375,-36.6693 81.84375,-81.84375 0,-9.39155 -1.07538,-18.41026 -3.28125,-26.8125 z" />
  <path
     inkscape:connector-curvature="0"
     id="path38"
     d="m 128.94469,140.46522 c -2.29272,3.97309 -6.50025,5.8386 -9.39677,4.16629 -2.89652,-1.67231 -3.38472,-6.2489 -1.09029,-10.22099 2.29443,-3.97209 6.50026,-5.83861 9.39679,-4.1663 2.89653,1.67231 3.38471,6.2489 1.09027,10.221 z" />
  <path
     inkscape:connector-curvature="0"
     id="path40"
     d="m 96.20764,140.46522 c 2.29272,3.97309 6.50025,5.8386 9.39677,4.16629 2.89652,-1.67231 3.38472,-6.2489 1.09029,-10.22099 -2.29443,-3.97209 -6.50026,-5.83861 -9.39679,-4.1663 -2.89653,1.67231 -3.38471,6.2489 -1.09027,10.221 z" />
  <path
     style="fill:#333333;fill-rule:evenodd;stroke:#000000;stroke-width:4"
     inkscape:connector-curvature="0"
     id="path42"
     d="m 53.3125,32.2653 c -7.3329,-1.32806 -15.5,-21.5 -12.5,-25.5 3,-4 26.3741,4.46627 27,13.5 0.55216,7.96942 -5.38595,13.65064 -14.5,12 z" />
  <path
     style="fill:#333333;fill-rule:evenodd;stroke:#000000;stroke-width:4"
     inkscape:connector-curvature="0"
     id="path44"
     d="m 170.21075,32.2653 c 7.3329,-1.32806 15.5,-21.5 12.5,-25.5 -3,-4 -26.3741,4.46627 -27,13.5 -0.55216,7.96942 5.38595,13.65064 14.5,12 z" />
</svg>
