<?xml version="1.0" encoding="UTF-8" standalone="no"?>
<svg viewBox="0 0 224.65625 254.26529" xmlns="http://www.w3.org/2000/svg">
<g transform="translate(-238.92378,-428.4017)">
<path d="m441.29462,560.70587c.01482,49.72803-40.29355,90.04842-90.02158,90.04842s-90.0364-40.32039-90.02158-90.04842c-.01482-49.72803 40.29355-90.04842 90.02158-90.04842s90.0364,40.32039 90.02158,90.04842z" fill="#fff" stroke="#000" stroke-linecap="round" stroke-linejoin="round" stroke-width="3.28736" transform="matrix(1.21678,0,0,1.21678,-76.1501,-121.55162)"/>
<path d="m441.08808,500.81586c-5.40118,6.5541-6.24204,17.00939-4.56036,21.04543 1.24066,2.97759 9.47404,4.44202 17.34784,5.17662-3.08352-9.3702-7.40519-18.18122-12.78748-26.22205zm-193.41461,29.39582c-2.86756,9.71753-4.40946,19.98109-4.40629,30.62834-.00166,5.56181.42338,11.02622 1.23253,16.36182 8.18155,4.7505 18.80139,20.38833 27.85515,21.56926 11.33927,1.47903 8.87421-21.69251 1.97205-23.17155s-9.86023-12.32529-10.35324-24.15756c-.33107-7.94562-4.68127-15.67012-16.3002-21.23031zm211.53278,27.7319c-2.91511,1.35717-5.62341,3.39137-7.88818,6.31671-11.83228,15.28336-21.69251,4.93011-33.52479,10.35324s-3.94409,19.22745.49301,32.53876c3.21228,9.63684-2.6052,28.82146 4.40629,34.75732 22.43604-19.79772 36.58491-48.79433 36.5753-81.06959 .00028-.97361-.0055-1.92901-.03082-2.89644h-.03081zm-146.91745,9.27478c4.93012,15.28336-5.91614,9.86023-7.88818,20.21347s33.03177,13.31131 38.94791,34.51081 32.53877,9.86023 32.04575-1.97205-17.74841-17.2554-13.31131-24.15756 13.31131-21.1995 13.31131-21.1995l-63.10548-7.39517z" fill="#4d4d4d" fill-rule="evenodd"/>
<path d="m454.1875,523.125c.07679,1.68161.125,3.39329.125,5.09375 0,60.46428-49.06696,109.53125-109.53125,109.53125-47.26217,0-87.5912-29.99927-102.9375-71.96875 2.65351,58.11219 50.67363,104.46875 109.4375,104.46875 60.46429,0 109.53125-49.06697 109.53125-109.53125 0-13.20218-2.33815-25.87003-6.625-37.59375z" fill-opacity=".31373"/>
<path d="m359.45331,671.27549c0,9.09078 14.66533,9.38135 32.73511,9.38135s32.73512.69349 32.73512-9.38135c0-17.71594-14.66534-32.0941-32.73512-32.0941s-32.73511,14.37816-32.73511,32.0941z" fill="#333" stroke="#000" stroke-linecap="round" stroke-linejoin="round" stroke-width="4"/>
<path d="m435.90825,525.42049c0,45.17448-55.12119,81.83781-81.8378,81.83781-25.71825,0-81.8378-36.66333-81.8378-81.83781s24.62503-81.8378 81.8378-81.8378c57.22259,0 81.8378,36.66334 81.8378,81.8378z" fill-opacity=".31373"/>
<path d="m404.77885,680.0559c0-16.36756-9.44283-26.43991-9.44283-26.43991s3.77713,13.84948 3.14761,26.43991h6.29522z" fill-opacity=".31373" fill-rule="evenodd" stroke="#000" stroke-linejoin="round" stroke-width="4"/>
<path d="m108.875,46.34375c-30.12925.61059-50.93167,11.65327-63.625,28.75-24.06444-2.58779-44.0625,23.625-44.0625,23.625s18.89113,9.44632 32.0625,1.53125c-2.39923,8.71172-3.5625,18.10595-3.5625,27.90625 0,45.17448 56.1255,81.84375 81.84375,81.84375 26.71661,0 81.84375-36.66927 81.84375-81.84375 0-9.8003-1.16389-19.19453-3.5625-27.90625 13.17137,7.91507 32.03125-1.53125 32.03125-1.53125s-19.97122-26.20456-44.03125-23.625c-13.06166-17.59499-34.70768-28.75-66.28125-28.75-.89395,0-1.77818-.01779-2.65625,0z" fill="#fff" stroke="#000" stroke-linecap="round" stroke-linejoin="round" stroke-width="4" transform="translate(239.73628,384.06586)"/>
<path d="m365.48628,432.37836c25.72095,17.92613-3.04956,17.14231-8.75,23.28125-6.5,7-9,17-1.5,23.5s46,17.50001 51.5-.5c2.83534-9.27929-.56613-20.80215-2.34375-30.96875-10.01754-7.86146-22.90449-13.24222-38.90625-15.3125z" fill="#4d4d4d" fill-rule="evenodd"/>
<path d="m441.29462,560.70587c.01482,49.72803-40.29355,90.04842-90.02158,90.04842s-90.0364-40.32039-90.02158-90.04842c-.01482-49.72803 40.29355-90.04842 90.02158-90.04842s90.0364,40.32039 90.02158,90.04842z" fill="#fff" stroke="#000" stroke-linecap="round" stroke-linejoin="round" stroke-width="15.88889" transform="matrix(.25175,0,0,.25175,236.54837,359.07889)"/>
<path d="m441.29462,560.70587c.01482,49.72803-40.29355,90.04842-90.02158,90.04842s-90.0364-40.32039-90.02158-90.04842c-.01482-49.72803 40.29355-90.04842 90.02158-90.04842s90.0364,40.32039 90.02158,90.04842z" fill="#fff" stroke="#000" stroke-linecap="round" stroke-linejoin="round" stroke-width="15.88889" transform="matrix(.25175,0,0,.25175,289.28057,359.07889)"/>
<path d="m441.29462,560.70587c.01482,49.72803-40.29355,90.04842-90.02158,90.04842s-90.0364-40.32039-90.02158-90.04842c-.01482-49.72803 40.29355-90.04842 90.02158-90.04842s90.0364,40.32039 90.02158,90.04842z" transform="matrix(8.3916033e-2,0,0,8.3916033e-2,343.19932,457.18337)"/>
<path d="m441.29462,560.70587c.01482,49.72803-40.29355,90.04842-90.02158,90.04842s-90.0364-40.32039-90.02158-90.04842c-.01482-49.72803 40.29355-90.04842 90.02158-90.04842s90.0364,40.32039 90.02158,90.04842z" transform="matrix(8.3916033e-2,0,0,8.3916033e-2,301.16898,457.18337)"/>
<path d="m111.53125,159.59375c-19.86207,0-35.96875,13.216-35.96875,29.5 0,3.01956.56411,5.94363 1.59375,8.6875 12.71163,7.74342 25.39435,12.21875 34.375,12.21875 9.19823,0 21.75693-4.33121 34.28125-11.875 1.11318-2.84275 1.71875-5.88658 1.71875-9.03125 0-16.284-16.13793-29.5-36-29.5z" fill="#ffd5e5" stroke="#000" stroke-linecap="round" stroke-linejoin="round" stroke-width="4" transform="translate(239.73628,384.06586)"/>
<path d="m190.09375,101.34375-1.875,2.65625c.24888,3.07548.34375,6.20264.34375,9.375 0,45.17449-55.12714,81.84375-81.84375,81.84375-20.70581,2e-005-61.09673-23.75565-76.0625-56.59375 7.61581,40.24628 57.1719,71.37501 80.875,71.375 26.71661,0 81.84375-36.6693 81.84375-81.84375 0-9.39155-1.07538-18.41026-3.28125-26.8125z" fill-opacity=".31373" transform="translate(239.73628,384.06586)"/>
<path d="m344.4555,671.27549c0,9.09078-14.66533,9.38135-32.73511,9.38135s-32.73512.69349-32.73512-9.38135c0-17.71594 14.66534-32.0941 32.73512-32.0941s32.73511,14.37816 32.73511,32.0941z" fill="#333" stroke="#000" stroke-linecap="round" stroke-linejoin="round" stroke-width="4"/>
<path d="m299.12996,680.0559c0-16.36756 9.44283-26.43991 9.44283-26.43991s-3.77713,13.84948-3.14761,26.43991h-6.29522z" fill-opacity=".31373" fill-rule="evenodd" stroke="#000" stroke-linejoin="round" stroke-width="4"/>
<path d="m367.86847,568.86692c-2.29272,3.97309-6.50025,5.8386-9.39677,4.16629s-3.38472-6.2489-1.09029-10.22099 6.50026-5.83861 9.39679-4.1663 3.38471,6.2489 1.09027,10.221z"/>
<path d="m335.13142,568.86692c2.29272,3.97309 6.50025,5.8386 9.39677,4.16629s3.38472-6.2489 1.09029-10.22099-6.50026-5.83861-9.39679-4.1663-3.38471,6.2489-1.09027,10.221z"/>
<path d="m292.23628,460.667c-7.3329-1.32806-15.5-21.5-12.5-25.5s26.3741,4.46627 27,13.5c.55216,7.96942-5.38595,13.65064-14.5,12z" fill="#333" fill-rule="evenodd" stroke="#000" stroke-width="4"/>
<path d="m409.13453,460.667c7.3329-1.32806 15.5-21.5 12.5-25.5s-26.3741,4.46627-27,13.5c-.55216,7.96942 5.38595,13.65064 14.5,12z" fill="#333" fill-rule="evenodd" stroke="#000" stroke-width="4"/>
</g>
</svg>
